
<svg width="800" height="600" viewBox="0 0 800 600" xmlns="http://www.w3.org/2000/svg">
  <defs>
    <linearGradient id="homeBg" x1="0%" y1="0%" x2="100%" y2="100%">
      <stop offset="0%" style="stop-color:#f8fafc;stop-opacity:1" />
      <stop offset="100%" style="stop-color:#e2e8f0;stop-opacity:1" />
    </linearGradient>
    <linearGradient id="skinFamily1" x1="0%" y1="0%" x2="100%" y2="100%">
      <stop offset="0%" style="stop-color:#fdbcb4;stop-opacity:1" />
      <stop offset="100%" style="stop-color:#f4a79b;stop-opacity:1" />
    </linearGradient>
    <linearGradient id="skinFamily2" x1="0%" y1="0%" x2="100%" y2="100%">
      <stop offset="0%" style="stop-color:#d4a574;stop-opacity:1" />
      <stop offset="100%" style="stop-color:#c49864;stop-opacity:1" />
    </linearGradient>
    <filter id="paperShadow" x="-50%" y="-50%" width="200%" height="200%">
      <feDropShadow dx="3" dy="5" stdDeviation="4" flood-color="#00000030"/>
    </filter>
  </defs>
  
  <!-- Living Room Background -->
  <rect width="800" height="600" fill="url(#homeBg)"/>
  
  <!-- Sofa/couch -->
  <ellipse cx="400" cy="450" rx="300" ry="60" fill="#4a5568" opacity="0.3"/>
  <rect x="150" y="380" width="500" height="80" rx="20" fill="#6b7280"/>
  <rect x="170" y="360" width="460" height="40" rx="15" fill="#9ca3af"/>
  
  <!-- Coffee table -->
  <ellipse cx="400" cy="500" rx="120" ry="30" fill="#8b4513" opacity="0.8"/>
  
  <!-- Father with Phone (Left) -->
  <g transform="translate(250, 180)">
    <!-- Body -->
    <ellipse cx="0" cy="120" rx="50" ry="90" fill="#1e40af"/>
    <!-- Arms -->
    <ellipse cx="-40" cy="90" rx="18" ry="50" fill="url(#skinFamily2)" transform="rotate(-20)"/>
    <ellipse cx="40" cy="90" rx="18" ry="50" fill="url(#skinFamily2)" transform="rotate(20)"/>
    <!-- Head -->
    <circle cx="0" cy="0" r="45" fill="url(#skinFamily2)"/>
    <!-- Hair -->
    <path d="M -40,-25 Q 0,-50 40,-25 Q 45,-10 35,15 Q 0,20 -35,15 Q -45,-10 -40,-25" fill="#2d1810"/>
    <!-- Eyes -->
    <circle cx="-12" cy="-8" r="4" fill="white"/>
    <circle cx="12" cy="-8" r="4" fill="white"/>
    <circle cx="-12" cy="-8" r="3" fill="#1f2937"/>
    <circle cx="12" cy="-8" r="3" fill="#1f2937"/>
    <!-- Happy smile -->
    <path d="M -15,12 Q 0,25 15,12" stroke="#1f2937" stroke-width="3" fill="none"/>
    <!-- Phone -->
    <rect x="25" y="70" width="22" height="40" rx="6" fill="#1f2937" filter="url(#paperShadow)"/>
    <rect x="27" y="72" width="18" height="30" fill="#10b981"/>
    <!-- Success message on phone -->
    <text x="36" y="80" font-family="Arial" font-size="5" fill="white" text-anchor="middle">APPROVED!</text>
    <text x="36" y="85" font-family="Arial" font-size="3" fill="white" text-anchor="middle">Home Loan</text>
    <text x="36" y="89" font-family="Arial" font-size="4" fill="#fbbf24" text-anchor="middle">$250,000</text>
    <text x="36" y="94" font-family="Arial" font-size="3" fill="white" text-anchor="middle">3.2% APR</text>
    <circle cx="36" cy="98" r="3" fill="#fbbf24"/>
    <text x="36" y="100" font-family="Arial" font-size="3" fill="#1f2937" text-anchor="middle">✓</text>
  </g>
  
  <!-- Mother with Documents (Center) -->
  <g transform="translate(400, 170)">
    <!-- Body -->
    <ellipse cx="0" cy="130" rx="45" ry="85" fill="#7c3aed"/>
    <!-- Arms -->
    <ellipse cx="-35" cy="100" rx="16" ry="45" fill="url(#skinFamily1)" transform="rotate(-15)"/>
    <ellipse cx="35" cy="100" rx="16" ry="45" fill="url(#skinFamily1)" transform="rotate(15)"/>
    <!-- Head -->
    <circle cx="0" cy="0" r="42" fill="url(#skinFamily1)"/>
    <!-- Hair -->
    <path d="M -38,-22 Q 0,-45 38,-22 Q 42,-8 35,12 Q 0,18 -35,12 Q -42,-8 -38,-22" fill="#8b4513"/>
    <!-- Eyes -->
    <circle cx="-10" cy="-5" r="4" fill="white"/>
    <circle cx="10" cy="-5" r="4" fill="white"/>
    <circle cx="-10" cy="-5" r="3" fill="#1f2937"/>
    <circle cx="10" cy="-5" r="3" fill="#1f2937"/>
    <!-- Joyful smile -->
    <path d="M -18,10 Q 0,22 18,10" stroke="#1f2937" stroke-width="3" fill="none"/>
    <!-- Documents in hands -->
    <rect x="-45" y="80" width="25" height="35" fill="white" stroke="#d1d5db" stroke-width="1" filter="url(#paperShadow)"/>
    <rect x="20" y="80" width="25" height="35" fill="white" stroke="#d1d5db" stroke-width="1" filter="url(#paperShadow)"/>
    <!-- Loan documents content -->
    <text x="-32" y="87" font-family="Arial" font-size="4" fill="#1f2937" text-anchor="middle" font-weight="bold">OAKLINE BANK</text>
    <line x1="-42" y1="90" x2="-22" y2="90" stroke="#6b7280" stroke-width="0.5"/>
    <line x1="-42" y1="93" x2="-25" y2="93" stroke="#6b7280" stroke-width="0.5"/>
    <line x1="-42" y1="96" x2="-22" y2="96" stroke="#6b7280" stroke-width="0.5"/>
    <text x="-32" y="102" font-family="Arial" font-size="3" fill="#10b981" text-anchor="middle" font-weight="bold">APPROVED</text>
    
    <text x="32" y="87" font-family="Arial" font-size="4" fill="#1f2937" text-anchor="middle" font-weight="bold">HOME LOAN</text>
    <line x1="22" y1="90" x2="42" y2="90" stroke="#6b7280" stroke-width="0.5"/>
    <line x1="22" y1="93" x2="38" y2="93" stroke="#6b7280" stroke-width="0.5"/>
    <line x1="22" y1="96" x2="42" y2="96" stroke="#6b7280" stroke-width="0.5"/>
    <text x="32" y="102" font-family="Arial" font-size="3" fill="#10b981" text-anchor="middle" font-weight="bold">$250,000</text>
    
    <!-- Approval stamps -->
    <circle cx="-32" cy="107" r="6" fill="#10b981"/>
    <text x="-32" y="109" font-family="Arial" font-size="4" fill="white" text-anchor="middle">✓</text>
    <circle cx="32" cy="107" r="6" fill="#10b981"/>
    <text x="32" y="109" font-family="Arial" font-size="4" fill="white" text-anchor="middle">✓</text>
  </g>
  
  <!-- Teenage Son with Phone (Right) -->
  <g transform="translate(550, 200)">
    <!-- Body -->
    <ellipse cx="0" cy="110" rx="38" ry="75" fill="#059669"/>
    <!-- Arms -->
    <ellipse cx="-28" cy="85" rx="14" ry="40" fill="url(#skinFamily1)" transform="rotate(-25)"/>
    <ellipse cx="28" cy="85" rx="14" ry="40" fill="url(#skinFamily1)" transform="rotate(25)"/>
    <!-- Head -->
    <circle cx="0" cy="0" r="35" fill="url(#skinFamily1)"/>
    <!-- Young hair -->
    <path d="M -30,-20 Q 0,-38 30,-20 Q 35,-5 25,8 Q 0,12 -25,8 Q -35,-5 -30,-20" fill="#4a3728"/>
    <!-- Eyes -->
    <circle cx="-8" cy="-3" r="3" fill="white"/>
    <circle cx="8" cy="-3" r="3" fill="white"/>
    <circle cx="-8" cy="-3" r="2" fill="#1f2937"/>
    <circle cx="8" cy="-3" r="2" fill="#1f2937"/>
    <!-- Excited smile -->
    <path d="M -10,8 Q 0,18 10,8" stroke="#1f2937" stroke-width="2" fill="none"/>
    <!-- Phone with gaming/social -->
    <rect x="15" y="65" width="18" height="32" rx="4" fill="#1f2937" filter="url(#paperShadow)"/>
    <rect x="17" y="67" width="14" height="24" fill="#3b82f6"/>
    <!-- Social media sharing success -->
    <circle cx="24" cy="73" r="2" fill="#fbbf24"/>
    <text x="24" y="78" font-family="Arial" font-size="3" fill="white" text-anchor="middle">We got</text>
    <text x="24" y="81" font-family="Arial" font-size="3" fill="white" text-anchor="middle">our home!</text>
    <text x="24" y="85" font-family="Arial" font-size="2" fill="#93c5fd" text-anchor="middle">❤️ 47 likes</text>
    <text x="24" y="88" font-family="Arial" font-size="2" fill="#34d399" text-anchor="middle">#blessed</text>
  </g>
  
  <!-- Celebration banner above family -->
  <g transform="translate(400, 120)">
    <rect x="-200" y="-20" width="400" height="40" rx="20" fill="#10b981" opacity="0.95" filter="url(#paperShadow)"/>
    <text x="0" y="-5" font-family="Arial" font-size="18" fill="white" text-anchor="middle" font-weight="bold">🏠 HOME LOAN APPROVED! 🎉</text>
    <text x="0" y="10" font-family="Arial" font-size="12" fill="#d1fae5" text-anchor="middle">The Johnson Family • $250,000 • 3.2% APR</text>
  </g>
  
  <!-- Documents on coffee table -->
  <g transform="translate(400, 470)">
    <!-- Mortgage papers -->
    <rect x="-40" y="-15" width="30" height="25" fill="white" stroke="#d1d5db" stroke-width="1" filter="url(#paperShadow)" transform="rotate(-5)"/>
    <rect x="-5" y="-18" width="30" height="25" fill="white" stroke="#d1d5db" stroke-width="1" filter="url(#paperShadow)" transform="rotate(3)"/>
    <rect x="15" y="-12" width="30" height="25" fill="white" stroke="#d1d5db" stroke-width="1" filter="url(#paperShadow)" transform="rotate(-2)"/>
    
    <!-- Pen -->
    <rect x="35" y="-5" width="2" height="15" fill="#1f2937" transform="rotate(15)"/>
    <circle cx="38" cy="0" r="1" fill="#3b82f6" transform="rotate(15)"/>
  </g>
  
  <!-- Celebration confetti -->
  <g opacity="0.6">
    <rect x="150" y="80" width="4" height="4" fill="#fbbf24" transform="rotate(45)">
      <animate attributeName="y" values="80;550;80" dur="4s" repeatCount="indefinite"/>
    </rect>
    <rect x="300" y="60" width="3" height="3" fill="#10b981" transform="rotate(30)">
      <animate attributeName="y" values="60;550;60" dur="3.5s" repeatCount="indefinite"/>
    </rect>
    <rect x="500" y="70" width="4" height="4" fill="#3b82f6" transform="rotate(60)">
      <animate attributeName="y" values="70;550;70" dur="4.2s" repeatCount="indefinite"/>
    </rect>
    <rect x="650" y="90" width="3" height="3" fill="#f472b6" transform="rotate(20)">
      <animate attributeName="y" values="90;550;90" dur="3.8s" repeatCount="indefinite"/>
    </rect>
  </g>
  
  <!-- Footer text -->
  <text x="400" y="560" font-family="Arial" font-size="20" fill="#1a365d" text-anchor="middle" font-weight="bold">Making Dreams Come True</text>
  <text x="400" y="580" font-family="Arial" font-size="12" fill="#64748b" text-anchor="middle">OAKLINE BANK - Your Partner in Life's Big Moments</text>
</svg>
