
<svg width="800" height="600" viewBox="0 0 800 600" xmlns="http://www.w3.org/2000/svg">
  <defs>
    <linearGradient id="backgroundGrad" x1="0%" y1="0%" x2="100%" y2="100%">
      <stop offset="0%" style="stop-color:#f8fafc;stop-opacity:1" />
      <stop offset="100%" style="stop-color:#e2e8f0;stop-opacity:1" />
    </linearGradient>
    <linearGradient id="skinTone1" x1="0%" y1="0%" x2="100%" y2="100%">
      <stop offset="0%" style="stop-color:#fdbcb4;stop-opacity:1" />
      <stop offset="100%" style="stop-color:#f4a79b;stop-opacity:1" />
    </linearGradient>
    <linearGradient id="skinTone2" x1="0%" y1="0%" x2="100%" y2="100%">
      <stop offset="0%" style="stop-color:#d4a574;stop-opacity:1" />
      <stop offset="100%" style="stop-color:#c49864;stop-opacity:1" />
    </linearGradient>
    <filter id="shadow" x="-50%" y="-50%" width="200%" height="200%">
      <feDropShadow dx="2" dy="4" stdDeviation="3" flood-color="#00000020"/>
    </filter>
  </defs>
  
  <!-- Background -->
  <rect width="800" height="600" fill="url(#backgroundGrad)"/>
  
  <!-- Bank Interior Background -->
  <rect x="0" y="400" width="800" height="200" fill="#1a365d" opacity="0.1"/>
  <rect x="50" y="450" width="700" height="2" fill="#3182ce" opacity="0.3"/>
  
  <!-- Woman with Phone (Left) -->
  <g transform="translate(150, 180)">
    <!-- Body -->
    <ellipse cx="0" cy="80" rx="35" ry="60" fill="#2563eb"/>
    <!-- Arms -->
    <ellipse cx="-25" cy="60" rx="12" ry="35" fill="url(#skinTone1)" transform="rotate(-20)"/>
    <ellipse cx="25" cy="60" rx="12" ry="35" fill="url(#skinTone1)" transform="rotate(20)"/>
    <!-- Head -->
    <circle cx="0" cy="0" r="30" fill="url(#skinTone1)"/>
    <!-- Hair -->
    <path d="M -25,-20 Q 0,-35 25,-20 Q 30,-10 25,5 Q 0,10 -25,5 Q -30,-10 -25,-20" fill="#4a3728"/>
    <!-- Eyes -->
    <circle cx="-8" cy="-5" r="3" fill="white"/>
    <circle cx="8" cy="-5" r="3" fill="white"/>
    <circle cx="-8" cy="-5" r="2" fill="#1f2937"/>
    <circle cx="8" cy="-5" r="2" fill="#1f2937"/>
    <!-- Smile -->
    <path d="M -10,8 Q 0,15 10,8" stroke="#1f2937" stroke-width="2" fill="none"/>
    <!-- Phone in hand -->
    <rect x="15" y="40" width="15" height="25" rx="3" fill="#1f2937" filter="url(#shadow)"/>
    <rect x="16" y="41" width="13" height="18" fill="#3b82f6"/>
    <text x="22.5" y="52" font-family="Arial" font-size="6" fill="white" text-anchor="middle">📱</text>
  </g>
  
  <!-- Man with Documents (Center) -->
  <g transform="translate(400, 160)">
    <!-- Body -->
    <ellipse cx="0" cy="90" rx="40" ry="70" fill="#059669"/>
    <!-- Arms -->
    <ellipse cx="-30" cy="70" rx="15" ry="40" fill="url(#skinTone2)" transform="rotate(-10)"/>
    <ellipse cx="30" cy="70" rx="15" ry="40" fill="url(#skinTone2)" transform="rotate(10)"/>
    <!-- Head -->
    <circle cx="0" cy="0" r="35" fill="url(#skinTone2)"/>
    <!-- Hair -->
    <path d="M -30,-15 Q 0,-40 30,-15 Q 35,-5 30,10 Q 0,15 -30,10 Q -35,-5 -30,-15" fill="#2d1810"/>
    <!-- Eyes -->
    <circle cx="-10" cy="-8" r="3" fill="white"/>
    <circle cx="10" cy="-8" r="3" fill="white"/>
    <circle cx="-10" cy="-8" r="2" fill="#1f2937"/>
    <circle cx="10" cy="-8" r="2" fill="#1f2937"/>
    <!-- Smile -->
    <path d="M -12,5 Q 0,15 12,5" stroke="#1f2937" stroke-width="2" fill="none"/>
    <!-- Documents in hands -->
    <rect x="-35" y="45" width="20" height="30" fill="white" stroke="#e5e7eb" stroke-width="1" filter="url(#shadow)"/>
    <rect x="15" y="45" width="20" height="30" fill="white" stroke="#e5e7eb" stroke-width="1" filter="url(#shadow)"/>
    <!-- Document text lines -->
    <line x1="-32" y1="50" x2="-18" y2="50" stroke="#374151" stroke-width="1"/>
    <line x1="-32" y1="54" x2="-20" y2="54" stroke="#374151" stroke-width="1"/>
    <line x1="-32" y1="58" x2="-18" y2="58" stroke="#374151" stroke-width="1"/>
    <line x1="18" y1="50" x2="32" y2="50" stroke="#374151" stroke-width="1"/>
    <line x1="18" y1="54" x2="30" y2="54" stroke="#374151" stroke-width="1"/>
    <line x1="18" y1="58" x2="32" y2="58" stroke="#374151" stroke-width="1"/>
    <!-- APPROVED stamp -->
    <circle cx="-25" cy="65" r="8" fill="#10b981" opacity="0.9"/>
    <text x="-25" y="68" font-family="Arial" font-size="6" fill="white" text-anchor="middle" font-weight="bold">✓</text>
    <circle cx="25" cy="65" r="8" fill="#10b981" opacity="0.9"/>
    <text x="25" y="68" font-family="Arial" font-size="6" fill="white" text-anchor="middle" font-weight="bold">✓</text>
  </g>
  
  <!-- Woman with Tablet (Right) -->
  <g transform="translate(650, 190)">
    <!-- Body -->
    <ellipse cx="0" cy="75" rx="32" ry="55" fill="#7c3aed"/>
    <!-- Arms -->
    <ellipse cx="-20" cy="55" rx="10" ry="30" fill="url(#skinTone1)" transform="rotate(-25)"/>
    <ellipse cx="20" cy="55" rx="10" ry="30" fill="url(#skinTone1)" transform="rotate(25)"/>
    <!-- Head -->
    <circle cx="0" cy="0" r="28" fill="url(#skinTone1)"/>
    <!-- Hair -->
    <path d="M -23,-18 Q 0,-32 23,-18 Q 28,-8 23,3 Q 0,8 -23,3 Q -28,-8 -23,-18" fill="#8b4513"/>
    <!-- Eyes -->
    <circle cx="-7" cy="-3" r="2.5" fill="white"/>
    <circle cx="7" cy="-3" r="2.5" fill="white"/>
    <circle cx="-7" cy="-3" r="1.5" fill="#1f2937"/>
    <circle cx="7" cy="-3" r="1.5" fill="#1f2937"/>
    <!-- Smile -->
    <path d="M -8,6 Q 0,12 8,6" stroke="#1f2937" stroke-width="1.5" fill="none"/>
    <!-- Tablet in hands -->
    <rect x="-18" y="35" width="36" height="25" rx="2" fill="#374151" filter="url(#shadow)"/>
    <rect x="-16" y="37" width="32" height="21" fill="#1e40af"/>
    <!-- Screen content -->
    <text x="0" y="45" font-family="Arial" font-size="8" fill="white" text-anchor="middle" font-weight="bold">OAKLINE BANK</text>
    <text x="0" y="52" font-family="Arial" font-size="6" fill="#60a5fa" text-anchor="middle">Loan Approved!</text>
  </g>
  
  <!-- Loan Approval Banner -->
  <g transform="translate(400, 350)">
    <rect x="-180" y="-25" width="360" height="50" rx="25" fill="#10b981" filter="url(#shadow)"/>
    <text x="0" y="-5" font-family="Arial" font-size="20" fill="white" text-anchor="middle" font-weight="bold">LOAN APPROVED!</text>
    <text x="0" y="12" font-family="Arial" font-size="14" fill="#d1fae5" text-anchor="middle">$25,000 • 3.5% APR • Sarah Johnson</text>
  </g>
  
  <!-- Celebration elements -->
  <g opacity="0.7">
    <circle cx="200" cy="120" r="3" fill="#fbbf24">
      <animate attributeName="r" values="0;5;0" dur="2s" repeatCount="indefinite"/>
    </circle>
    <circle cx="600" cy="140" r="4" fill="#34d399">
      <animate attributeName="r" values="0;6;0" dur="2.5s" repeatCount="indefinite"/>
    </circle>
    <circle cx="500" cy="100" r="2" fill="#60a5fa">
      <animate attributeName="r" values="0;4;0" dur="1.8s" repeatCount="indefinite"/>
    </circle>
    <circle cx="300" cy="130" r="3" fill="#f472b6">
      <animate attributeName="r" values="0;5;0" dur="2.2s" repeatCount="indefinite"/>
    </circle>
  </g>
  
  <!-- Bank logo/branding -->
  <text x="400" y="550" font-family="Arial" font-size="24" fill="#1a365d" text-anchor="middle" font-weight="bold">OAKLINE BANK</text>
  <text x="400" y="570" font-family="Arial" font-size="12" fill="#64748b" text-anchor="middle">Banking Excellence Since 1985</text>
</svg>
